# xmcd CD database file
#
# Track frame offsets:
#	150
#	1102
#	22227
#	34557
#	54540
#	74222
#	92677
#	98010
#	111980
#	115667
#	136572
#	155980
#	161137
#	177662
#	188659
#	207607
#	209940
#
# Disc length: 3010 seconds
#
# Revision: 0
# Processed by: cddbd v1.5.2PL0 Copyright (c) Steve Scherf et al.
# Submitted via: CDex 1.51
#
DISCID=fc0bc011
DTITLE=Perry Foster - Shaman Song
DYEAR=2005
DGENRE=New Age
TTITLE0=Oshanke
TTITLE1=Aum de É Winjah
TTITLE2=Song of the Grass Dancer
TTITLE3=Dae Wandi Wei
TTITLE4=Oxum
TTITLE5=Jumanjeré, Dé Kwanana
TTITLE6=Natoas
TTITLE7=Bom Shanti Kaya
TTITLE8=Wind
TTITLE9=Kumariz
TTITLE10=Gahmarahrah
TTITLE11=Boo Tateweah
TTITLE12=Jaguar
TTITLE13=Chismaden
TTITLE14=Buhmanade
TTITLE15=Pollen Path
TTITLE16=Beija-Flor
EXTD=YEAR: 2005
EXTT0=
EXTT1=
EXTT2=
EXTT3=
EXTT4=
EXTT5=
EXTT6=
EXTT7=
EXTT8=
EXTT9=
EXTT10=
EXTT11=
EXTT12=
EXTT13=
EXTT14=
EXTT15=
EXTT16=
PLAYORDER=
